<?xml version="1.0" encoding="UTF-8" standalone="no"?>
<!DOCTYPE svg PUBLIC "-//W3C//DTD SVG 1.1//EN" "http://www.w3.org/Graphics/SVG/1.1/DTD/svg11.dtd">
<svg width="100%" height="100%" viewBox="0 0 1749 1241" version="1.1" xmlns="http://www.w3.org/2000/svg" xmlns:xlink="http://www.w3.org/1999/xlink" xml:space="preserve" xmlns:serif="http://www.serif.com/" style="fill-rule:evenodd;clip-rule:evenodd;stroke-linecap:round;stroke-linejoin:round;stroke-miterlimit:1.5;">
    <g transform="matrix(1,0,0,1,-71.7012,-16.7351)">
        <g transform="matrix(300,0,0,300,707.923,707.921)">
            <path d="M0.416,-0.596C0.416,-0.59 0.416,-0.584 0.415,-0.58C0.414,-0.575 0.413,-0.571 0.412,-0.569C0.41,-0.566 0.408,-0.564 0.406,-0.563C0.404,-0.561 0.402,-0.561 0.399,-0.561L0.168,-0.561L0.168,-0.346L0.387,-0.346C0.389,-0.346 0.391,-0.345 0.393,-0.344C0.395,-0.343 0.397,-0.341 0.399,-0.338C0.401,-0.336 0.402,-0.332 0.402,-0.328C0.403,-0.323 0.403,-0.318 0.403,-0.311C0.403,-0.305 0.403,-0.3 0.402,-0.295C0.402,-0.291 0.401,-0.287 0.399,-0.284C0.397,-0.282 0.395,-0.28 0.393,-0.278C0.391,-0.277 0.389,-0.276 0.387,-0.276L0.168,-0.276L0.168,-0.013C0.168,-0.01 0.167,-0.008 0.166,-0.006C0.165,-0.004 0.162,-0.002 0.159,-0.001C0.156,0 0.152,0.001 0.146,0.002C0.141,0.003 0.134,0.003 0.126,0.003C0.118,0.003 0.111,0.003 0.106,0.002C0.1,0.001 0.096,0 0.093,-0.001C0.09,-0.002 0.087,-0.004 0.086,-0.006C0.085,-0.008 0.084,-0.01 0.084,-0.013L0.084,-0.598C0.084,-0.61 0.087,-0.619 0.094,-0.624C0.101,-0.629 0.108,-0.632 0.115,-0.632L0.399,-0.632C0.402,-0.632 0.404,-0.631 0.406,-0.63C0.408,-0.629 0.41,-0.626 0.412,-0.624C0.413,-0.621 0.414,-0.617 0.415,-0.612C0.416,-0.607 0.416,-0.602 0.416,-0.596Z" style="fill-rule:nonzero;"/>
        </g>
        <g transform="matrix(300,0,0,300,841.37,707.921)">
            <path d="M0.45,-0.251C0.45,-0.238 0.447,-0.229 0.44,-0.224C0.434,-0.219 0.427,-0.216 0.418,-0.216L0.13,-0.216C0.13,-0.191 0.133,-0.169 0.138,-0.15C0.143,-0.13 0.151,-0.114 0.162,-0.1C0.174,-0.086 0.188,-0.075 0.207,-0.067C0.225,-0.06 0.247,-0.056 0.273,-0.056C0.294,-0.056 0.313,-0.058 0.329,-0.061C0.345,-0.065 0.359,-0.069 0.371,-0.073C0.383,-0.077 0.393,-0.081 0.401,-0.084C0.408,-0.088 0.414,-0.089 0.418,-0.089C0.42,-0.089 0.422,-0.089 0.424,-0.088C0.426,-0.087 0.427,-0.085 0.428,-0.083C0.429,-0.08 0.43,-0.077 0.43,-0.073C0.431,-0.069 0.431,-0.064 0.431,-0.058C0.431,-0.054 0.431,-0.05 0.431,-0.047C0.43,-0.044 0.43,-0.041 0.429,-0.039C0.429,-0.036 0.428,-0.034 0.427,-0.032C0.426,-0.03 0.424,-0.028 0.423,-0.027C0.421,-0.025 0.416,-0.022 0.407,-0.018C0.398,-0.014 0.387,-0.01 0.373,-0.006C0.359,-0.002 0.342,0.002 0.324,0.005C0.306,0.008 0.286,0.009 0.265,0.009C0.229,0.009 0.197,0.004 0.17,-0.006C0.143,-0.016 0.12,-0.031 0.102,-0.051C0.083,-0.071 0.069,-0.096 0.06,-0.125C0.05,-0.155 0.045,-0.19 0.045,-0.23C0.045,-0.268 0.05,-0.302 0.06,-0.332C0.07,-0.362 0.084,-0.387 0.102,-0.408C0.121,-0.429 0.143,-0.446 0.169,-0.457C0.195,-0.468 0.224,-0.474 0.256,-0.474C0.291,-0.474 0.32,-0.468 0.344,-0.457C0.369,-0.446 0.389,-0.431 0.404,-0.412C0.42,-0.394 0.431,-0.372 0.439,-0.346C0.446,-0.321 0.45,-0.294 0.45,-0.266L0.45,-0.251ZM0.369,-0.275C0.37,-0.317 0.36,-0.35 0.341,-0.375C0.321,-0.399 0.292,-0.411 0.253,-0.411C0.233,-0.411 0.216,-0.407 0.201,-0.399C0.186,-0.392 0.173,-0.382 0.163,-0.37C0.153,-0.357 0.145,-0.343 0.14,-0.326C0.134,-0.31 0.131,-0.293 0.13,-0.275L0.369,-0.275Z" style="fill-rule:nonzero;"/>
        </g>
        <g transform="matrix(300,0,0,300,990.638,707.921)">
            <path d="M0.155,-0.012C0.155,-0.01 0.155,-0.007 0.153,-0.006C0.152,-0.004 0.15,-0.002 0.147,-0.001C0.144,0 0.14,0.001 0.135,0.002C0.13,0.003 0.123,0.003 0.115,0.003C0.107,0.003 0.1,0.003 0.095,0.002C0.09,0.001 0.086,0 0.083,-0.001C0.08,-0.002 0.078,-0.004 0.076,-0.006C0.075,-0.007 0.075,-0.01 0.075,-0.012L0.075,-0.665C0.075,-0.667 0.075,-0.669 0.076,-0.671C0.078,-0.673 0.08,-0.675 0.083,-0.676C0.086,-0.678 0.09,-0.679 0.095,-0.679C0.1,-0.68 0.107,-0.68 0.115,-0.68C0.123,-0.68 0.13,-0.68 0.135,-0.679C0.14,-0.679 0.144,-0.678 0.147,-0.676C0.15,-0.675 0.152,-0.673 0.153,-0.671C0.155,-0.669 0.155,-0.667 0.155,-0.665L0.155,-0.012Z" style="fill-rule:nonzero;"/>
        </g>
        <g transform="matrix(300,0,0,300,1059.49,707.921)">
            <path d="M0.451,-0.012C0.451,-0.01 0.451,-0.007 0.449,-0.005C0.448,-0.003 0.446,-0.002 0.444,-0.001C0.441,0 0.437,0.001 0.433,0.002C0.428,0.003 0.423,0.003 0.416,0.003C0.409,0.003 0.403,0.003 0.399,0.002C0.394,0.001 0.391,0 0.388,-0.001C0.385,-0.002 0.383,-0.003 0.381,-0.005C0.38,-0.007 0.379,-0.01 0.379,-0.012L0.379,-0.07C0.356,-0.045 0.332,-0.026 0.307,-0.012C0.282,0.002 0.255,0.009 0.226,0.009C0.193,0.009 0.166,0.003 0.143,-0.01C0.12,-0.022 0.102,-0.039 0.088,-0.06C0.073,-0.082 0.063,-0.107 0.057,-0.135C0.05,-0.164 0.047,-0.195 0.047,-0.227C0.047,-0.264 0.051,-0.298 0.059,-0.329C0.067,-0.359 0.079,-0.385 0.095,-0.407C0.111,-0.428 0.131,-0.445 0.155,-0.456C0.178,-0.468 0.205,-0.474 0.236,-0.474C0.262,-0.474 0.286,-0.468 0.307,-0.457C0.328,-0.446 0.349,-0.429 0.37,-0.407L0.37,-0.663C0.37,-0.665 0.371,-0.667 0.372,-0.669C0.373,-0.671 0.375,-0.673 0.378,-0.674C0.382,-0.675 0.386,-0.676 0.391,-0.677C0.396,-0.678 0.402,-0.678 0.41,-0.678C0.418,-0.678 0.425,-0.678 0.43,-0.677C0.435,-0.676 0.439,-0.675 0.442,-0.674C0.445,-0.673 0.448,-0.671 0.449,-0.669C0.45,-0.667 0.451,-0.665 0.451,-0.663L0.451,-0.012ZM0.37,-0.321C0.348,-0.348 0.327,-0.369 0.307,-0.383C0.287,-0.397 0.265,-0.404 0.243,-0.404C0.223,-0.404 0.205,-0.399 0.191,-0.39C0.177,-0.38 0.165,-0.367 0.156,-0.351C0.147,-0.335 0.141,-0.317 0.136,-0.297C0.132,-0.277 0.13,-0.256 0.13,-0.235C0.13,-0.213 0.132,-0.192 0.135,-0.17C0.139,-0.149 0.145,-0.13 0.153,-0.114C0.162,-0.098 0.173,-0.084 0.187,-0.074C0.201,-0.065 0.219,-0.06 0.24,-0.06C0.25,-0.06 0.261,-0.061 0.271,-0.064C0.281,-0.067 0.291,-0.072 0.301,-0.079C0.312,-0.085 0.323,-0.094 0.334,-0.105C0.345,-0.116 0.357,-0.13 0.37,-0.146L0.37,-0.321Z" style="fill-rule:nonzero;"/>
        </g>
        <g transform="matrix(300,0,0,300,1217.1,707.921)">
            <path d="M0.45,-0.251C0.45,-0.238 0.447,-0.229 0.44,-0.224C0.434,-0.219 0.427,-0.216 0.418,-0.216L0.13,-0.216C0.13,-0.191 0.133,-0.169 0.138,-0.15C0.143,-0.13 0.151,-0.114 0.162,-0.1C0.174,-0.086 0.188,-0.075 0.207,-0.067C0.225,-0.06 0.247,-0.056 0.273,-0.056C0.294,-0.056 0.313,-0.058 0.329,-0.061C0.345,-0.065 0.359,-0.069 0.371,-0.073C0.383,-0.077 0.393,-0.081 0.401,-0.084C0.408,-0.088 0.414,-0.089 0.418,-0.089C0.42,-0.089 0.422,-0.089 0.424,-0.088C0.426,-0.087 0.427,-0.085 0.428,-0.083C0.429,-0.08 0.43,-0.077 0.43,-0.073C0.431,-0.069 0.431,-0.064 0.431,-0.058C0.431,-0.054 0.431,-0.05 0.431,-0.047C0.43,-0.044 0.43,-0.041 0.429,-0.039C0.429,-0.036 0.428,-0.034 0.427,-0.032C0.426,-0.03 0.424,-0.028 0.423,-0.027C0.421,-0.025 0.416,-0.022 0.407,-0.018C0.398,-0.014 0.387,-0.01 0.373,-0.006C0.359,-0.002 0.342,0.002 0.324,0.005C0.306,0.008 0.286,0.009 0.265,0.009C0.229,0.009 0.197,0.004 0.17,-0.006C0.143,-0.016 0.12,-0.031 0.102,-0.051C0.083,-0.071 0.069,-0.096 0.06,-0.125C0.05,-0.155 0.045,-0.19 0.045,-0.23C0.045,-0.268 0.05,-0.302 0.06,-0.332C0.07,-0.362 0.084,-0.387 0.102,-0.408C0.121,-0.429 0.143,-0.446 0.169,-0.457C0.195,-0.468 0.224,-0.474 0.256,-0.474C0.291,-0.474 0.32,-0.468 0.344,-0.457C0.369,-0.446 0.389,-0.431 0.404,-0.412C0.42,-0.394 0.431,-0.372 0.439,-0.346C0.446,-0.321 0.45,-0.294 0.45,-0.266L0.45,-0.251ZM0.369,-0.275C0.37,-0.317 0.36,-0.35 0.341,-0.375C0.321,-0.399 0.292,-0.411 0.253,-0.411C0.233,-0.411 0.216,-0.407 0.201,-0.399C0.186,-0.392 0.173,-0.382 0.163,-0.37C0.153,-0.357 0.145,-0.343 0.14,-0.326C0.134,-0.31 0.131,-0.293 0.13,-0.275L0.369,-0.275Z" style="fill-rule:nonzero;"/>
        </g>
        <g transform="matrix(300,0,0,300,1366.37,707.921)">
            <path d="M0.332,-0.423C0.332,-0.416 0.331,-0.41 0.331,-0.405C0.331,-0.4 0.33,-0.396 0.329,-0.393C0.328,-0.391 0.327,-0.388 0.325,-0.387C0.324,-0.385 0.322,-0.385 0.319,-0.385C0.317,-0.385 0.314,-0.385 0.31,-0.387C0.306,-0.388 0.302,-0.39 0.297,-0.391C0.292,-0.393 0.287,-0.394 0.281,-0.396C0.275,-0.397 0.269,-0.397 0.262,-0.397C0.254,-0.397 0.246,-0.396 0.238,-0.393C0.23,-0.389 0.222,-0.384 0.214,-0.376C0.205,-0.369 0.196,-0.359 0.187,-0.347C0.177,-0.334 0.167,-0.319 0.155,-0.301L0.155,-0.012C0.155,-0.01 0.155,-0.007 0.153,-0.006C0.152,-0.004 0.15,-0.002 0.147,-0.001C0.144,0 0.14,0.001 0.135,0.002C0.13,0.003 0.123,0.003 0.115,0.003C0.107,0.003 0.1,0.003 0.095,0.002C0.09,0.001 0.086,0 0.083,-0.001C0.08,-0.002 0.078,-0.004 0.076,-0.006C0.075,-0.007 0.075,-0.01 0.075,-0.012L0.075,-0.452C0.075,-0.454 0.075,-0.456 0.076,-0.458C0.077,-0.46 0.079,-0.462 0.082,-0.463C0.085,-0.465 0.089,-0.466 0.093,-0.466C0.098,-0.467 0.104,-0.467 0.111,-0.467C0.118,-0.467 0.124,-0.467 0.129,-0.466C0.134,-0.466 0.138,-0.465 0.14,-0.463C0.143,-0.462 0.145,-0.46 0.146,-0.458C0.147,-0.456 0.147,-0.454 0.147,-0.452L0.147,-0.388C0.16,-0.405 0.171,-0.42 0.181,-0.431C0.192,-0.442 0.202,-0.45 0.211,-0.457C0.221,-0.463 0.23,-0.468 0.24,-0.47C0.249,-0.472 0.258,-0.474 0.268,-0.474C0.272,-0.474 0.277,-0.473 0.282,-0.473C0.287,-0.472 0.293,-0.472 0.299,-0.47C0.305,-0.469 0.31,-0.467 0.315,-0.466C0.319,-0.464 0.323,-0.463 0.325,-0.461C0.327,-0.459 0.328,-0.458 0.329,-0.456C0.329,-0.455 0.33,-0.453 0.33,-0.451C0.331,-0.448 0.331,-0.445 0.331,-0.441C0.331,-0.436 0.332,-0.43 0.332,-0.423Z" style="fill-rule:nonzero;"/>
        </g>
    </g>
    <g>
        <path d="M248.031,425.197C381.069,449.304 401.575,535.433 401.575,590.551C401.575,645.669 378.119,733.519 248.031,755.906" style="fill:none;stroke:black;stroke-width:8.33px;"/>
        <path d="M342.52,413.386C413.188,448.239 425.197,531.496 425.197,590.551C425.197,649.606 412.94,733.756 342.52,767.717" style="fill:none;stroke:black;stroke-width:8.33px;"/>
        <path d="M401.575,401.575C439.298,449.206 437.008,527.559 437.008,590.551C437.008,653.543 437.154,732.837 401.575,779.528" style="fill:none;stroke:black;stroke-width:8.33px;"/>
        <g transform="matrix(-1,0,0,1,885.827,-1.13687e-13)">
            <path d="M248.031,425.197C381.069,449.304 401.575,535.433 401.575,590.551C401.575,645.669 378.119,733.519 248.031,755.906" style="fill:none;stroke:black;stroke-width:8.33px;"/>
        </g>
        <g transform="matrix(-1,0,0,1,885.827,-1.13687e-13)">
            <path d="M342.52,413.386C413.188,448.239 425.197,531.496 425.197,590.551C425.197,649.606 412.94,733.756 342.52,767.717" style="fill:none;stroke:black;stroke-width:8.33px;"/>
        </g>
        <g transform="matrix(-1,0,0,1,885.827,-1.13687e-13)">
            <path d="M401.575,401.575C439.298,449.206 437.008,527.559 437.008,590.551C437.008,653.543 437.154,732.837 401.575,779.528" style="fill:none;stroke:black;stroke-width:8.33px;"/>
        </g>
    </g>
</svg>
